<svg width="113" height="113" xmlns="http://www.w3.org/2000/svg" xmlns:xlink="http://www.w3.org/1999/xlink" overflow="hidden"><g><rect x="0" y="0" width="113" height="113" fill="#FFFFFF"/><path d="M11.9838 13.5663 41.6613 13.5663 41.6613 42.5433 11.9838 42.5433Z" fill="#DEEBF7" fill-rule="evenodd"/><path d="M41.6613 13.5663 71.3387 13.5663 71.3387 42.5433 41.6613 42.5433Z" fill="#DEEBF7" fill-rule="evenodd"/><path d="M71.3387 13.5663 101.016 13.5663 101.016 42.5433 71.3387 42.5433Z" fill="#DEEBF7" fill-rule="evenodd"/><path d="M11.9838 42.5433 41.6613 42.5433 41.6613 71.5203 11.9838 71.5203Z" fill="#DEEBF7" fill-rule="evenodd"/><path d="M41.6613 42.5433 71.3387 42.5433 71.3387 71.5203 41.6613 71.5203Z" fill="#FFCCFF" fill-rule="evenodd"/><path d="M41.6613 12.9016 41.6613 101.162" stroke="#000000" stroke-width="1.32941" stroke-linejoin="round" stroke-miterlimit="10" fill="none" fill-rule="evenodd"/><path d="M71.3387 12.9016 71.3387 101.162" stroke="#000000" stroke-width="1.32941" stroke-linejoin="round" stroke-miterlimit="10" fill="none" fill-rule="evenodd"/><path d="M11.3191 42.5433 101.681 42.5433" stroke="#000000" stroke-width="1.32941" stroke-linejoin="round" stroke-miterlimit="10" fill="none" fill-rule="evenodd"/><path d="M11.3191 71.5203 101.681 71.5203" stroke="#000000" stroke-width="1.32941" stroke-linejoin="round" stroke-miterlimit="10" fill="none" fill-rule="evenodd"/><path d="M11.9838 12.9016 11.9838 101.162" stroke="#000000" stroke-width="1.32941" stroke-linejoin="round" stroke-miterlimit="10" fill="none" fill-rule="evenodd"/><path d="M101.016 12.9016 101.016 101.162" stroke="#000000" stroke-width="1.32941" stroke-linejoin="round" stroke-miterlimit="10" fill="none" fill-rule="evenodd"/><path d="M11.3191 13.5663 101.681 13.5663" stroke="#000000" stroke-width="1.32941" stroke-linejoin="round" stroke-miterlimit="10" fill="none" fill-rule="evenodd"/><path d="M11.3191 100.497 101.681 100.497" stroke="#000000" stroke-width="1.32941" stroke-linejoin="round" stroke-miterlimit="10" fill="none" fill-rule="evenodd"/><g><text font-family="Yu Gothic,Yu Gothic_MSFontService,sans-serif" font-weight="700" font-size="14.6235" transform="matrix(1 0 0 1 78.8657 32)">③</text></g><g><text font-family="Yu Gothic,Yu Gothic_MSFontService,sans-serif" font-weight="700" font-size="14.6235" transform="matrix(1 0 0 1 49.1882 32)">②</text></g><g><text font-family="Yu Gothic,Yu Gothic_MSFontService,sans-serif" font-weight="700" font-size="14.6235" transform="matrix(1 0 0 1 19.5107 32)">①</text></g><g><text font-family="Yu Gothic,Yu Gothic_MSFontService,sans-serif" font-weight="700" font-size="14.6235" transform="matrix(1 0 0 1 19.5107 61)">④</text></g></g></svg>