<svg width="794" height="234" xmlns="http://www.w3.org/2000/svg" xmlns:xlink="http://www.w3.org/1999/xlink" overflow="hidden"><g><rect x="0" y="0" width="794" height="233.569" fill="#FFFFFF"/><path d="M49.6664 57.4471 49.6664 221.746" stroke="#000000" stroke-width="1.33389" stroke-linejoin="round" stroke-miterlimit="10" fill="none" fill-rule="evenodd"/><path d="M81.7434 57.4471 81.7434 221.746" stroke="#000000" stroke-width="1.33389" stroke-linejoin="round" stroke-miterlimit="10" fill="none" fill-rule="evenodd"/><path d="M113.82 57.4471 113.82 221.746" stroke="#000000" stroke-width="1.33389" stroke-linejoin="round" stroke-miterlimit="10" fill="none" fill-rule="evenodd"/><path d="M145.897 57.4471 145.897 221.746" stroke="#000000" stroke-width="1.33389" stroke-linejoin="round" stroke-miterlimit="10" fill="none" fill-rule="evenodd"/><path d="M177.974 57.4471 177.974 221.746" stroke="#000000" stroke-width="1.33389" stroke-linejoin="round" stroke-miterlimit="10" fill="none" fill-rule="evenodd"/><path d="M210.051 57.4471 210.051 221.746" stroke="#000000" stroke-width="1.33389" stroke-linejoin="round" stroke-miterlimit="10" fill="none" fill-rule="evenodd"/><path d="M16.9225 85.2741 242.795 85.2741" stroke="#000000" stroke-width="1.33389" stroke-linejoin="round" stroke-miterlimit="10" fill="none" fill-rule="evenodd"/><path d="M16.9225 112.435 242.795 112.435" stroke="#000000" stroke-width="1.33389" stroke-linejoin="round" stroke-miterlimit="10" fill="none" fill-rule="evenodd"/><path d="M16.9225 139.597 242.795 139.597" stroke="#000000" stroke-width="1.33389" stroke-linejoin="round" stroke-miterlimit="10" fill="none" fill-rule="evenodd"/><path d="M16.9225 166.758 242.795 166.758" stroke="#000000" stroke-width="1.33389" stroke-linejoin="round" stroke-miterlimit="10" fill="none" fill-rule="evenodd"/><path d="M16.9225 193.919 242.795 193.919" stroke="#000000" stroke-width="1.33389" stroke-linejoin="round" stroke-miterlimit="10" fill="none" fill-rule="evenodd"/><path d="M17.5894 57.4471 17.5894 221.746" stroke="#000000" stroke-width="1.33389" stroke-linejoin="round" stroke-miterlimit="10" fill="none" fill-rule="evenodd"/><path d="M242.128 57.4471 242.128 221.746" stroke="#000000" stroke-width="1.33389" stroke-linejoin="round" stroke-miterlimit="10" fill="none" fill-rule="evenodd"/><path d="M16.9225 58.1128 242.795 58.1128" stroke="#000000" stroke-width="1.33389" stroke-linejoin="round" stroke-miterlimit="10" fill="none" fill-rule="evenodd"/><path d="M16.9225 221.081 242.795 221.081" stroke="#000000" stroke-width="1.33389" stroke-linejoin="round" stroke-miterlimit="10" fill="none" fill-rule="evenodd"/><text font-family="Calibri,Calibri_MSFontService,sans-serif" font-weight="700" font-size="14.6458" transform="matrix(1 0 0 0.998158 220.448 77)">0</text><text font-family="Calibri,Calibri_MSFontService,sans-serif" font-weight="700" font-size="14.6458" transform="matrix(1 0 0 0.998158 188.371 77)">0</text><text font-family="Calibri,Calibri_MSFontService,sans-serif" font-weight="700" font-size="14.6458" transform="matrix(1 0 0 0.998158 156.294 77)">0</text><text font-family="Calibri,Calibri_MSFontService,sans-serif" font-weight="700" font-size="14.6458" transform="matrix(1 0 0 0.998158 124.217 77)">0</text><text font-family="Calibri,Calibri_MSFontService,sans-serif" font-weight="700" font-size="14.6458" transform="matrix(1 0 0 0.998158 92.1397 77)">0</text><text font-family="Calibri,Calibri_MSFontService,sans-serif" font-weight="700" font-size="14.6458" transform="matrix(1 0 0 0.998158 60.0627 77)">0</text><text font-family="Calibri,Calibri_MSFontService,sans-serif" font-weight="700" font-size="14.6458" transform="matrix(1 0 0 0.998158 27.9858 77)">0</text><text font-family="Calibri,Calibri_MSFontService,sans-serif" font-weight="700" font-size="14.6458" transform="matrix(1 0 0 0.998158 220.448 104)">0</text><text font-family="Calibri,Calibri_MSFontService,sans-serif" font-weight="700" font-size="14.6458" transform="matrix(1 0 0 0.998158 188.371 104)">0</text><text font-family="Calibri,Calibri_MSFontService,sans-serif" font-weight="700" font-size="14.6458" transform="matrix(1 0 0 0.998158 156.294 104)">0</text><g><text font-family="Calibri,Calibri_MSFontService,sans-serif" font-weight="700" font-size="14.6458" transform="matrix(1 0 0 0.998158 116.714 104)">150</text></g><g><text font-family="Calibri,Calibri_MSFontService,sans-serif" font-weight="700" font-size="14.6458" transform="matrix(1 0 0 0.998158 84.6366 104)">210</text></g><g><text font-family="Calibri,Calibri_MSFontService,sans-serif" font-weight="700" font-size="14.6458" transform="matrix(1 0 0 0.998158 52.5596 104)">200</text></g><text font-family="Calibri,Calibri_MSFontService,sans-serif" font-weight="700" font-size="14.6458" transform="matrix(1 0 0 0.998158 27.9858 104)">0</text><text font-family="Calibri,Calibri_MSFontService,sans-serif" font-weight="700" font-size="14.6458" transform="matrix(1 0 0 0.998158 220.448 131)">0</text><text font-family="Calibri,Calibri_MSFontService,sans-serif" font-weight="700" font-size="14.6458" transform="matrix(1 0 0 0.998158 188.371 131)">0</text><text font-family="Calibri,Calibri_MSFontService,sans-serif" font-weight="700" font-size="14.6458" transform="matrix(1 0 0 0.998158 156.294 131)">0</text><text font-family="Calibri,Calibri_MSFontService,sans-serif" font-weight="700" font-size="14.6458" transform="matrix(1 0 0 0.998158 124.217 131)">0</text><g><text font-family="Calibri,Calibri_MSFontService,sans-serif" font-weight="700" font-size="14.6458" transform="matrix(1 0 0 0.998158 84.6366 131)">220</text></g><g><text font-family="Calibri,Calibri_MSFontService,sans-serif" font-weight="700" font-size="14.6458" transform="matrix(1 0 0 0.998158 52.5596 131)">195</text></g><g><text font-family="Calibri,Calibri_MSFontService,sans-serif" font-weight="700" font-size="14.6458" transform="matrix(1 0 0 0.998158 20.4826 131)">100</text></g><text font-family="Calibri,Calibri_MSFontService,sans-serif" font-weight="700" font-size="14.6458" transform="matrix(1 0 0 0.998158 220.448 158)">0</text><g><text font-family="Calibri,Calibri_MSFontService,sans-serif" font-weight="700" font-size="14.6458" transform="matrix(1 0 0 0.998158 180.868 158)">150</text></g><g><text font-family="Calibri,Calibri_MSFontService,sans-serif" font-weight="700" font-size="14.6458" transform="matrix(1 0 0 0.998158 148.791 158)">180</text></g><text font-family="Calibri,Calibri_MSFontService,sans-serif" font-weight="700" font-size="14.6458" transform="matrix(1 0 0 0.998158 124.217 158)">0</text><text font-family="Calibri,Calibri_MSFontService,sans-serif" font-weight="700" font-size="14.6458" transform="matrix(1 0 0 0.998158 92.1397 158)">0</text><text font-family="Calibri,Calibri_MSFontService,sans-serif" font-weight="700" font-size="14.6458" transform="matrix(1 0 0 0.998158 60.0627 158)">0</text><text font-family="Calibri,Calibri_MSFontService,sans-serif" font-weight="700" font-size="14.6458" transform="matrix(1 0 0 0.998158 27.9858 158)">0</text><g><text font-family="Calibri,Calibri_MSFontService,sans-serif" font-weight="700" font-size="14.6458" transform="matrix(1 0 0 0.998158 212.945 185)">180</text></g><g><text font-family="Calibri,Calibri_MSFontService,sans-serif" font-weight="700" font-size="14.6458" transform="matrix(1 0 0 0.998158 180.868 185)">230</text></g><g><text font-family="Calibri,Calibri_MSFontService,sans-serif" font-weight="700" font-size="14.6458" transform="matrix(1 0 0 0.998158 148.791 185)">200</text></g><g><text font-family="Calibri,Calibri_MSFontService,sans-serif" font-weight="700" font-size="14.6458" transform="matrix(1 0 0 0.998158 116.714 185)">130</text></g><text font-family="Calibri,Calibri_MSFontService,sans-serif" font-weight="700" font-size="14.6458" transform="matrix(1 0 0 0.998158 92.1397 185)">0</text><text font-family="Calibri,Calibri_MSFontService,sans-serif" font-weight="700" font-size="14.6458" transform="matrix(1 0 0 0.998158 60.0627 185)">0</text><text font-family="Calibri,Calibri_MSFontService,sans-serif" font-weight="700" font-size="14.6458" transform="matrix(1 0 0 0.998158 27.9858 185)">0</text><text font-family="Calibri,Calibri_MSFontService,sans-serif" font-weight="700" font-size="14.6458" transform="matrix(1 0 0 0.998158 220.448 212)">0</text><text font-family="Calibri,Calibri_MSFontService,sans-serif" font-weight="700" font-size="14.6458" transform="matrix(1 0 0 0.998158 188.371 212)">0</text><text font-family="Calibri,Calibri_MSFontService,sans-serif" font-weight="700" font-size="14.6458" transform="matrix(1 0 0 0.998158 156.294 212)">0</text><g><text font-family="Calibri,Calibri_MSFontService,sans-serif" font-weight="700" font-size="14.6458" transform="matrix(1 0 0 0.998158 116.714 212)">110</text></g><text font-family="Calibri,Calibri_MSFontService,sans-serif" font-weight="700" font-size="14.6458" transform="matrix(1 0 0 0.998158 92.1397 212)">0</text><text font-family="Calibri,Calibri_MSFontService,sans-serif" font-weight="700" font-size="14.6458" transform="matrix(1 0 0 0.998158 60.0627 212)">0</text><text font-family="Calibri,Calibri_MSFontService,sans-serif" font-weight="700" font-size="14.6458" transform="matrix(1 0 0 0.998158 27.9858 212)">0</text><path d="M335.935 57.4471 335.935 221.746" stroke="#000000" stroke-width="1.33389" stroke-linejoin="round" stroke-miterlimit="10" fill="none" fill-rule="evenodd"/><path d="M366.161 57.4471 366.161 221.746" stroke="#000000" stroke-width="1.33389" stroke-linejoin="round" stroke-miterlimit="10" fill="none" fill-rule="evenodd"/><path d="M396.387 57.4471 396.387 221.746" stroke="#000000" stroke-width="1.33389" stroke-linejoin="round" stroke-miterlimit="10" fill="none" fill-rule="evenodd"/><path d="M426.613 57.4471 426.613 221.746" stroke="#000000" stroke-width="1.33389" stroke-linejoin="round" stroke-miterlimit="10" fill="none" fill-rule="evenodd"/><path d="M456.84 57.4471 456.84 221.746" stroke="#000000" stroke-width="1.33389" stroke-linejoin="round" stroke-miterlimit="10" fill="none" fill-rule="evenodd"/><path d="M487.066 57.4471 487.066 221.746" stroke="#000000" stroke-width="1.33389" stroke-linejoin="round" stroke-miterlimit="10" fill="none" fill-rule="evenodd"/><path d="M305.042 85.2741 517.959 85.2741" stroke="#000000" stroke-width="1.33389" stroke-linejoin="round" stroke-miterlimit="10" fill="none" fill-rule="evenodd"/><path d="M305.042 112.435 517.959 112.435" stroke="#000000" stroke-width="1.33389" stroke-linejoin="round" stroke-miterlimit="10" fill="none" fill-rule="evenodd"/><path d="M305.042 139.597 517.959 139.597" stroke="#000000" stroke-width="1.33389" stroke-linejoin="round" stroke-miterlimit="10" fill="none" fill-rule="evenodd"/><path d="M305.042 166.758 517.959 166.758" stroke="#000000" stroke-width="1.33389" stroke-linejoin="round" stroke-miterlimit="10" fill="none" fill-rule="evenodd"/><path d="M305.042 193.919 517.959 193.919" stroke="#000000" stroke-width="1.33389" stroke-linejoin="round" stroke-miterlimit="10" fill="none" fill-rule="evenodd"/><path d="M305.708 57.4471 305.708 221.746" stroke="#000000" stroke-width="1.33389" stroke-linejoin="round" stroke-miterlimit="10" fill="none" fill-rule="evenodd"/><path d="M517.292 57.4471 517.292 221.746" stroke="#000000" stroke-width="1.33389" stroke-linejoin="round" stroke-miterlimit="10" fill="none" fill-rule="evenodd"/><path d="M305.042 58.1128 517.959 58.1128" stroke="#000000" stroke-width="1.33389" stroke-linejoin="round" stroke-miterlimit="10" fill="none" fill-rule="evenodd"/><path d="M305.042 221.081 517.959 221.081" stroke="#000000" stroke-width="1.33389" stroke-linejoin="round" stroke-miterlimit="10" fill="none" fill-rule="evenodd"/><text font-family="Calibri,Calibri_MSFontService,sans-serif" font-weight="700" font-size="14.6458" transform="matrix(1 0 0 0.998158 496.537 77)">0</text><text font-family="Calibri,Calibri_MSFontService,sans-serif" font-weight="700" font-size="14.6458" transform="matrix(1 0 0 0.998158 466.311 77)">0</text><text font-family="Calibri,Calibri_MSFontService,sans-serif" font-weight="700" font-size="14.6458" transform="matrix(1 0 0 0.998158 436.084 77)">0</text><text font-family="Calibri,Calibri_MSFontService,sans-serif" font-weight="700" font-size="14.6458" transform="matrix(1 0 0 0.998158 405.858 77)">0</text><text font-family="Calibri,Calibri_MSFontService,sans-serif" font-weight="700" font-size="14.6458" transform="matrix(1 0 0 0.998158 375.632 77)">0</text><text font-family="Calibri,Calibri_MSFontService,sans-serif" font-weight="700" font-size="14.6458" transform="matrix(1 0 0 0.998158 345.406 77)">0</text><text font-family="Calibri,Calibri_MSFontService,sans-serif" font-weight="700" font-size="14.6458" transform="matrix(1 0 0 0.998158 315.179 77)">0</text><text font-family="Calibri,Calibri_MSFontService,sans-serif" font-weight="700" font-size="14.6458" transform="matrix(1 0 0 0.998158 496.537 104)">0</text><text font-family="Calibri,Calibri_MSFontService,sans-serif" font-weight="700" font-size="14.6458" transform="matrix(1 0 0 0.998158 466.311 104)">0</text><text font-family="Calibri,Calibri_MSFontService,sans-serif" font-weight="700" font-size="14.6458" transform="matrix(1 0 0 0.998158 436.084 104)">0</text><g><text font-family="Calibri,Calibri_MSFontService,sans-serif" font-weight="700" font-size="14.6458" transform="matrix(1 0 0 0.998158 398.355 104)">255</text></g><g><text font-family="Calibri,Calibri_MSFontService,sans-serif" font-weight="700" font-size="14.6458" transform="matrix(1 0 0 0.998158 368.129 104)">255</text></g><g><text font-family="Calibri,Calibri_MSFontService,sans-serif" font-weight="700" font-size="14.6458" transform="matrix(1 0 0 0.998158 337.903 104)">255</text></g><text font-family="Calibri,Calibri_MSFontService,sans-serif" font-weight="700" font-size="14.6458" transform="matrix(1 0 0 0.998158 315.179 104)">0</text><text font-family="Calibri,Calibri_MSFontService,sans-serif" font-weight="700" font-size="14.6458" transform="matrix(1 0 0 0.998158 496.537 131)">0</text><text font-family="Calibri,Calibri_MSFontService,sans-serif" font-weight="700" font-size="14.6458" transform="matrix(1 0 0 0.998158 466.311 131)">0</text><text font-family="Calibri,Calibri_MSFontService,sans-serif" font-weight="700" font-size="14.6458" transform="matrix(1 0 0 0.998158 436.084 131)">0</text><text font-family="Calibri,Calibri_MSFontService,sans-serif" font-weight="700" font-size="14.6458" transform="matrix(1 0 0 0.998158 405.858 131)">0</text><g><text font-family="Calibri,Calibri_MSFontService,sans-serif" font-weight="700" font-size="14.6458" transform="matrix(1 0 0 0.998158 368.129 131)">255</text></g><g><text font-family="Calibri,Calibri_MSFontService,sans-serif" font-weight="700" font-size="14.6458" transform="matrix(1 0 0 0.998158 337.903 131)">255</text></g><text font-family="Calibri,Calibri_MSFontService,sans-serif" font-weight="700" font-size="14.6458" transform="matrix(1 0 0 0.998158 315.179 131)">0</text><text font-family="Calibri,Calibri_MSFontService,sans-serif" font-weight="700" font-size="14.6458" transform="matrix(1 0 0 0.998158 496.537 158)">0</text><g><text font-family="Calibri,Calibri_MSFontService,sans-serif" font-weight="700" font-size="14.6458" transform="matrix(1 0 0 0.998158 458.807 158)">255</text></g><g><text font-family="Calibri,Calibri_MSFontService,sans-serif" font-weight="700" font-size="14.6458" transform="matrix(1 0 0 0.998158 428.581 158)">255</text></g><text font-family="Calibri,Calibri_MSFontService,sans-serif" font-weight="700" font-size="14.6458" transform="matrix(1 0 0 0.998158 405.858 158)">0</text><text font-family="Calibri,Calibri_MSFontService,sans-serif" font-weight="700" font-size="14.6458" transform="matrix(1 0 0 0.998158 375.632 158)">0</text><text font-family="Calibri,Calibri_MSFontService,sans-serif" font-weight="700" font-size="14.6458" transform="matrix(1 0 0 0.998158 345.406 158)">0</text><text font-family="Calibri,Calibri_MSFontService,sans-serif" font-weight="700" font-size="14.6458" transform="matrix(1 0 0 0.998158 315.179 158)">0</text><g><text font-family="Calibri,Calibri_MSFontService,sans-serif" font-weight="700" font-size="14.6458" transform="matrix(1 0 0 0.998158 489.034 185)">255</text></g><g><text font-family="Calibri,Calibri_MSFontService,sans-serif" font-weight="700" font-size="14.6458" transform="matrix(1 0 0 0.998158 458.807 185)">255</text></g><g><text font-family="Calibri,Calibri_MSFontService,sans-serif" font-weight="700" font-size="14.6458" transform="matrix(1 0 0 0.998158 428.581 185)">255</text></g><g><text font-family="Calibri,Calibri_MSFontService,sans-serif" font-weight="700" font-size="14.6458" transform="matrix(1 0 0 0.998158 398.355 185)">255</text></g><text font-family="Calibri,Calibri_MSFontService,sans-serif" font-weight="700" font-size="14.6458" transform="matrix(1 0 0 0.998158 375.632 185)">0</text><text font-family="Calibri,Calibri_MSFontService,sans-serif" font-weight="700" font-size="14.6458" transform="matrix(1 0 0 0.998158 345.406 185)">0</text><text font-family="Calibri,Calibri_MSFontService,sans-serif" font-weight="700" font-size="14.6458" transform="matrix(1 0 0 0.998158 315.179 185)">0</text><text font-family="Calibri,Calibri_MSFontService,sans-serif" font-weight="700" font-size="14.6458" transform="matrix(1 0 0 0.998158 496.537 212)">0</text><text font-family="Calibri,Calibri_MSFontService,sans-serif" font-weight="700" font-size="14.6458" transform="matrix(1 0 0 0.998158 466.311 212)">0</text><text font-family="Calibri,Calibri_MSFontService,sans-serif" font-weight="700" font-size="14.6458" transform="matrix(1 0 0 0.998158 436.084 212)">0</text><text font-family="Calibri,Calibri_MSFontService,sans-serif" font-weight="700" font-size="14.6458" transform="matrix(1 0 0 0.998158 405.858 212)">0</text><text font-family="Calibri,Calibri_MSFontService,sans-serif" font-weight="700" font-size="14.6458" transform="matrix(1 0 0 0.998158 375.632 212)">0</text><text font-family="Calibri,Calibri_MSFontService,sans-serif" font-weight="700" font-size="14.6458" transform="matrix(1 0 0 0.998158 345.406 212)">0</text><text font-family="Calibri,Calibri_MSFontService,sans-serif" font-weight="700" font-size="14.6458" transform="matrix(1 0 0 0.998158 315.179 212)">0</text><text font-family="Yu Gothic,Yu Gothic_MSFontService,sans-serif" font-weight="700" font-size="14.6458" transform="matrix(1 0 0 0.998158 71.9743 24)">ピクセルバッファー</text><text font-family="Calibri,Calibri_MSFontService,sans-serif" font-weight="700" font-size="14.6458" transform="matrix(1 0 0 0.998158 104.821 41)">(</text><text font-family="Yu Gothic,Yu Gothic_MSFontService,sans-serif" font-weight="700" font-size="14.6458" transform="matrix(1 0 0 0.998158 109.323 41)">二値化前</text><text font-family="Calibri,Calibri_MSFontService,sans-serif" font-weight="700" font-size="14.6458" transform="matrix(1 0 0 0.998158 168.015 41)">)</text><text font-family="Yu Gothic,Yu Gothic_MSFontService,sans-serif" font-weight="700" font-size="14.6458" transform="matrix(1 0 0 0.998158 344.734 27)">ピクセルバッファー</text><text font-family="Calibri,Calibri_MSFontService,sans-serif" font-weight="700" font-size="14.6458" transform="matrix(1 0 0 0.998158 377.581 44)">(</text><text font-family="Yu Gothic,Yu Gothic_MSFontService,sans-serif" font-weight="700" font-size="14.6458" transform="matrix(1 0 0 0.998158 382.083 44)">二値化後</text><text font-family="Calibri,Calibri_MSFontService,sans-serif" font-weight="700" font-size="14.6458" transform="matrix(1 0 0 0.998158 440.774 44)">)</text><path d="M259 123.273 276 123.273 276 111.794 293 134.751 276 157.709 276 146.23 259 146.23Z" stroke="#172C51" stroke-width="2.00084" stroke-miterlimit="8" fill="none" fill-rule="evenodd"/><text font-family="Yu Gothic,Yu Gothic_MSFontService,sans-serif" font-weight="700" font-size="14.6458" transform="matrix(1 0 0 0.998158 251.164 180)">二値化</text><text font-family="Yu Gothic,Yu Gothic_MSFontService,sans-serif" font-weight="700" font-size="14.6458" transform="matrix(1 0 0 0.998158 521.324 177)">連結成分</text><text font-family="Yu Gothic,Yu Gothic_MSFontService,sans-serif" font-weight="700" font-size="14.6458" transform="matrix(1 0 0 0.998158 528.661 194)">ラベル</text><text font-family="Yu Gothic,Yu Gothic_MSFontService,sans-serif" font-weight="700" font-size="14.6458" transform="matrix(1 0 0 0.998158 535.997 212)">づけ</text><path d="M534 123.273 551 123.273 551 111.794 568 134.751 551 157.709 551 146.23 534 146.23Z" stroke="#172C51" stroke-width="2.00084" stroke-miterlimit="8" fill="none" fill-rule="evenodd"/><path d="M611.518 85.2741 638.219 85.2741 638.219 112.435 611.518 112.435Z" fill="#DAE3F3" fill-rule="evenodd"/><path d="M638.219 85.2741 664.92 85.2741 664.92 112.435 638.219 112.435Z" fill="#DAE3F3" fill-rule="evenodd"/><path d="M664.92 85.2741 691.622 85.2741 691.622 112.435 664.92 112.435Z" fill="#DAE3F3" fill-rule="evenodd"/><path d="M611.518 112.435 638.219 112.435 638.219 139.597 611.518 139.597Z" fill="#DAE3F3" fill-rule="evenodd"/><path d="M638.219 112.435 664.92 112.435 664.92 139.597 638.219 139.597Z" fill="#DAE3F3" fill-rule="evenodd"/><path d="M691.622 139.597 718.323 139.597 718.323 166.758 691.622 166.758Z" fill="#FBE5D6" fill-rule="evenodd"/><path d="M718.323 139.597 745.024 139.597 745.024 166.758 718.323 166.758Z" fill="#FBE5D6" fill-rule="evenodd"/><path d="M664.92 166.758 691.622 166.758 691.622 193.919 664.92 193.919Z" fill="#FBE5D6" fill-rule="evenodd"/><path d="M691.622 166.758 718.323 166.758 718.323 193.919 691.622 193.919Z" fill="#FBE5D6" fill-rule="evenodd"/><path d="M718.323 166.758 745.024 166.758 745.024 193.919 718.323 193.919Z" fill="#FBE5D6" fill-rule="evenodd"/><path d="M745.024 166.758 771.725 166.758 771.725 193.919 745.024 193.919Z" fill="#FBE5D6" fill-rule="evenodd"/><path d="M611.518 57.4471 611.518 221.746" stroke="#000000" stroke-width="1.33389" stroke-linejoin="round" stroke-miterlimit="10" fill="none" fill-rule="evenodd"/><path d="M638.219 57.4471 638.219 221.746" stroke="#000000" stroke-width="1.33389" stroke-linejoin="round" stroke-miterlimit="10" fill="none" fill-rule="evenodd"/><path d="M664.92 57.4471 664.92 221.746" stroke="#000000" stroke-width="1.33389" stroke-linejoin="round" stroke-miterlimit="10" fill="none" fill-rule="evenodd"/><path d="M691.622 57.4471 691.622 221.746" stroke="#000000" stroke-width="1.33389" stroke-linejoin="round" stroke-miterlimit="10" fill="none" fill-rule="evenodd"/><path d="M718.323 57.4471 718.323 221.746" stroke="#000000" stroke-width="1.33389" stroke-linejoin="round" stroke-miterlimit="10" fill="none" fill-rule="evenodd"/><path d="M745.024 57.4471 745.024 221.746" stroke="#000000" stroke-width="1.33389" stroke-linejoin="round" stroke-miterlimit="10" fill="none" fill-rule="evenodd"/><path d="M584.15 85.2741 772.392 85.2741" stroke="#000000" stroke-width="1.33389" stroke-linejoin="round" stroke-miterlimit="10" fill="none" fill-rule="evenodd"/><path d="M584.15 112.435 772.392 112.435" stroke="#000000" stroke-width="1.33389" stroke-linejoin="round" stroke-miterlimit="10" fill="none" fill-rule="evenodd"/><path d="M584.15 139.597 772.392 139.597" stroke="#000000" stroke-width="1.33389" stroke-linejoin="round" stroke-miterlimit="10" fill="none" fill-rule="evenodd"/><path d="M584.15 166.758 772.392 166.758" stroke="#000000" stroke-width="1.33389" stroke-linejoin="round" stroke-miterlimit="10" fill="none" fill-rule="evenodd"/><path d="M584.15 193.919 772.392 193.919" stroke="#000000" stroke-width="1.33389" stroke-linejoin="round" stroke-miterlimit="10" fill="none" fill-rule="evenodd"/><path d="M584.817 57.4471 584.817 221.746" stroke="#000000" stroke-width="1.33389" stroke-linejoin="round" stroke-miterlimit="10" fill="none" fill-rule="evenodd"/><path d="M771.725 57.4471 771.725 221.746" stroke="#000000" stroke-width="1.33389" stroke-linejoin="round" stroke-miterlimit="10" fill="none" fill-rule="evenodd"/><path d="M584.15 58.1128 772.392 58.1128" stroke="#000000" stroke-width="1.33389" stroke-linejoin="round" stroke-miterlimit="10" fill="none" fill-rule="evenodd"/><path d="M584.15 221.081 772.392 221.081" stroke="#000000" stroke-width="1.33389" stroke-linejoin="round" stroke-miterlimit="10" fill="none" fill-rule="evenodd"/><g><text font-family="Calibri,Calibri_MSFontService,sans-serif" font-weight="700" font-size="14.6458" transform="matrix(1 0 0 0.998158 752.732 77)">0</text></g><g><text font-family="Calibri,Calibri_MSFontService,sans-serif" font-weight="700" font-size="14.6458" transform="matrix(1 0 0 0.998158 726.031 77)">0</text></g><g><text font-family="Calibri,Calibri_MSFontService,sans-serif" font-weight="700" font-size="14.6458" transform="matrix(1 0 0 0.998158 699.33 77)">0</text></g><g><text font-family="Calibri,Calibri_MSFontService,sans-serif" font-weight="700" font-size="14.6458" transform="matrix(1 0 0 0.998158 672.629 77)">0</text></g><g><text font-family="Calibri,Calibri_MSFontService,sans-serif" font-weight="700" font-size="14.6458" transform="matrix(1 0 0 0.998158 645.928 77)">0</text></g><g><text font-family="Calibri,Calibri_MSFontService,sans-serif" font-weight="700" font-size="14.6458" transform="matrix(1 0 0 0.998158 619.226 77)">0</text></g><g><text font-family="Calibri,Calibri_MSFontService,sans-serif" font-weight="700" font-size="14.6458" transform="matrix(1 0 0 0.998158 592.525 77)">0</text></g><g><text font-family="Calibri,Calibri_MSFontService,sans-serif" font-weight="700" font-size="14.6458" transform="matrix(1 0 0 0.998158 752.732 104)">0</text></g><g><text font-family="Calibri,Calibri_MSFontService,sans-serif" font-weight="700" font-size="14.6458" transform="matrix(1 0 0 0.998158 726.031 104)">0</text></g><g><text font-family="Calibri,Calibri_MSFontService,sans-serif" font-weight="700" font-size="14.6458" transform="matrix(1 0 0 0.998158 699.33 104)">0</text></g><g><text font-family="Calibri,Calibri_MSFontService,sans-serif" font-weight="700" font-size="14.6458" transform="matrix(1 0 0 0.998158 672.629 104)">1</text></g><g><text font-family="Calibri,Calibri_MSFontService,sans-serif" font-weight="700" font-size="14.6458" transform="matrix(1 0 0 0.998158 645.928 104)">1</text></g><g><text font-family="Calibri,Calibri_MSFontService,sans-serif" font-weight="700" font-size="14.6458" transform="matrix(1 0 0 0.998158 619.226 104)">1</text></g><g><text font-family="Calibri,Calibri_MSFontService,sans-serif" font-weight="700" font-size="14.6458" transform="matrix(1 0 0 0.998158 592.525 104)">0</text></g><g><text font-family="Calibri,Calibri_MSFontService,sans-serif" font-weight="700" font-size="14.6458" transform="matrix(1 0 0 0.998158 752.732 131)">0</text></g><g><text font-family="Calibri,Calibri_MSFontService,sans-serif" font-weight="700" font-size="14.6458" transform="matrix(1 0 0 0.998158 726.031 131)">0</text></g><g><text font-family="Calibri,Calibri_MSFontService,sans-serif" font-weight="700" font-size="14.6458" transform="matrix(1 0 0 0.998158 699.33 131)">0</text></g><g><text font-family="Calibri,Calibri_MSFontService,sans-serif" font-weight="700" font-size="14.6458" transform="matrix(1 0 0 0.998158 672.629 131)">0</text></g><g><text font-family="Calibri,Calibri_MSFontService,sans-serif" font-weight="700" font-size="14.6458" transform="matrix(1 0 0 0.998158 645.928 131)">1</text></g><g><text font-family="Calibri,Calibri_MSFontService,sans-serif" font-weight="700" font-size="14.6458" transform="matrix(1 0 0 0.998158 619.226 131)">1</text></g><g><text font-family="Calibri,Calibri_MSFontService,sans-serif" font-weight="700" font-size="14.6458" transform="matrix(1 0 0 0.998158 592.525 131)">0</text></g><g><text font-family="Calibri,Calibri_MSFontService,sans-serif" font-weight="700" font-size="14.6458" transform="matrix(1 0 0 0.998158 752.732 158)">0</text></g><g><text font-family="Calibri,Calibri_MSFontService,sans-serif" font-weight="700" font-size="14.6458" transform="matrix(1 0 0 0.998158 726.031 158)">2</text></g><g><text font-family="Calibri,Calibri_MSFontService,sans-serif" font-weight="700" font-size="14.6458" transform="matrix(1 0 0 0.998158 699.33 158)">2</text></g><g><text font-family="Calibri,Calibri_MSFontService,sans-serif" font-weight="700" font-size="14.6458" transform="matrix(1 0 0 0.998158 672.629 158)">0</text></g><g><text font-family="Calibri,Calibri_MSFontService,sans-serif" font-weight="700" font-size="14.6458" transform="matrix(1 0 0 0.998158 645.928 158)">0</text></g><g><text font-family="Calibri,Calibri_MSFontService,sans-serif" font-weight="700" font-size="14.6458" transform="matrix(1 0 0 0.998158 619.226 158)">0</text></g><g><text font-family="Calibri,Calibri_MSFontService,sans-serif" font-weight="700" font-size="14.6458" transform="matrix(1 0 0 0.998158 592.525 158)">0</text></g><g><text font-family="Calibri,Calibri_MSFontService,sans-serif" font-weight="700" font-size="14.6458" transform="matrix(1 0 0 0.998158 752.732 185)">2</text></g><g><text font-family="Calibri,Calibri_MSFontService,sans-serif" font-weight="700" font-size="14.6458" transform="matrix(1 0 0 0.998158 726.031 185)">2</text></g><g><text font-family="Calibri,Calibri_MSFontService,sans-serif" font-weight="700" font-size="14.6458" transform="matrix(1 0 0 0.998158 699.33 185)">2</text></g><g><text font-family="Calibri,Calibri_MSFontService,sans-serif" font-weight="700" font-size="14.6458" transform="matrix(1 0 0 0.998158 672.629 185)">2</text></g><g><text font-family="Calibri,Calibri_MSFontService,sans-serif" font-weight="700" font-size="14.6458" transform="matrix(1 0 0 0.998158 645.928 185)">0</text></g><g><text font-family="Calibri,Calibri_MSFontService,sans-serif" font-weight="700" font-size="14.6458" transform="matrix(1 0 0 0.998158 619.226 185)">0</text></g><g><text font-family="Calibri,Calibri_MSFontService,sans-serif" font-weight="700" font-size="14.6458" transform="matrix(1 0 0 0.998158 592.525 185)">0</text></g><g><text font-family="Calibri,Calibri_MSFontService,sans-serif" font-weight="700" font-size="14.6458" transform="matrix(1 0 0 0.998158 752.732 212)">0</text></g><g><text font-family="Calibri,Calibri_MSFontService,sans-serif" font-weight="700" font-size="14.6458" transform="matrix(1 0 0 0.998158 726.031 212)">0</text></g><g><text font-family="Calibri,Calibri_MSFontService,sans-serif" font-weight="700" font-size="14.6458" transform="matrix(1 0 0 0.998158 699.33 212)">0</text></g><g><text font-family="Calibri,Calibri_MSFontService,sans-serif" font-weight="700" font-size="14.6458" transform="matrix(1 0 0 0.998158 672.629 212)">0</text></g><g><text font-family="Calibri,Calibri_MSFontService,sans-serif" font-weight="700" font-size="14.6458" transform="matrix(1 0 0 0.998158 645.928 212)">0</text></g><g><text font-family="Calibri,Calibri_MSFontService,sans-serif" font-weight="700" font-size="14.6458" transform="matrix(1 0 0 0.998158 619.226 212)">0</text></g><g><text font-family="Calibri,Calibri_MSFontService,sans-serif" font-weight="700" font-size="14.6458" transform="matrix(1 0 0 0.998158 592.525 212)">0</text></g><text font-family="Yu Gothic,Yu Gothic_MSFontService,sans-serif" font-weight="700" font-size="14.6458" transform="matrix(1 0 0 0.998158 630.252 42)">ラベルバッファ</text></g></svg>