<svg width="155" height="151" xmlns="http://www.w3.org/2000/svg" xmlns:xlink="http://www.w3.org/1999/xlink" overflow="hidden"><g><rect x="0" y="0" width="155" height="150.834" fill="#FFFFFF"/><path d="M8.57155 7.57495 77.4999 7.57495 77.4999 34.745 8.57155 34.745Z" fill="#DEEBF7" fill-rule="evenodd"/><path d="M77.4999 7.57495 146.428 7.57495 146.428 34.745 77.4999 34.745Z" fill="#DEEBF7" fill-rule="evenodd"/><path d="M77.4999 6.90901 77.4999 144.091" stroke="#000000" stroke-width="1.33333" stroke-linejoin="round" stroke-miterlimit="10" fill="none" fill-rule="evenodd"/><path d="M7.90488 34.745 147.095 34.745" stroke="#000000" stroke-width="1.33333" stroke-linejoin="round" stroke-miterlimit="10" fill="none" fill-rule="evenodd"/><path d="M7.90488 61.915 147.095 61.915" stroke="#000000" stroke-width="1.33333" stroke-linejoin="round" stroke-miterlimit="10" fill="none" fill-rule="evenodd"/><path d="M7.90488 89.085 147.095 89.085" stroke="#000000" stroke-width="1.33333" stroke-linejoin="round" stroke-miterlimit="10" fill="none" fill-rule="evenodd"/><path d="M7.90488 116.255 147.095 116.255" stroke="#000000" stroke-width="1.33333" stroke-linejoin="round" stroke-miterlimit="10" fill="none" fill-rule="evenodd"/><path d="M8.57155 6.90901 8.57155 144.091" stroke="#000000" stroke-width="1.33333" stroke-linejoin="round" stroke-miterlimit="10" fill="none" fill-rule="evenodd"/><path d="M146.428 6.90901 146.428 144.091" stroke="#000000" stroke-width="1.33333" stroke-linejoin="round" stroke-miterlimit="10" fill="none" fill-rule="evenodd"/><path d="M7.90488 7.57495 147.095 7.57495" stroke="#000000" stroke-width="1.33333" stroke-linejoin="round" stroke-miterlimit="10" fill="none" fill-rule="evenodd"/><path d="M7.90488 143.425 147.095 143.425" stroke="#000000" stroke-width="1.33333" stroke-linejoin="round" stroke-miterlimit="10" fill="none" fill-rule="evenodd"/><text font-family="Yu Gothic,Yu Gothic_MSFontService,sans-serif" font-weight="700" font-size="14.6505" transform="matrix(1 0 0 0.998897 97.2974 26)">同値</text><text font-family="Yu Gothic,Yu Gothic_MSFontService,sans-serif" font-weight="700" font-size="14.6505" transform="matrix(1 0 0 0.998897 21.0357 26)">ラベル</text><text font-family="Calibri,Calibri_MSFontService,sans-serif" font-weight="700" font-size="14.6505" transform="matrix(1 0 0 0.998897 108.214 53)">1</text><text font-family="Calibri,Calibri_MSFontService,sans-serif" font-weight="700" font-size="14.6505" transform="matrix(1 0 0 0.998897 39.2857 53)">1</text><text font-family="Calibri,Calibri_MSFontService,sans-serif" font-weight="700" font-size="14.6505" transform="matrix(1 0 0 0.998897 108.214 81)">2</text><text font-family="Calibri,Calibri_MSFontService,sans-serif" font-weight="700" font-size="14.6505" transform="matrix(1 0 0 0.998897 39.2857 81)">2</text><text font-family="Calibri,Calibri_MSFontService,sans-serif" font-weight="700" font-size="14.6505" transform="matrix(1 0 0 0.998897 108.214 108)">3</text><text font-family="Calibri,Calibri_MSFontService,sans-serif" font-weight="700" font-size="14.6505" transform="matrix(1 0 0 0.998897 39.2857 108)">3</text><text font-family="Yu Gothic,Yu Gothic_MSFontService,sans-serif" font-weight="700" font-size="14.6505" transform="matrix(1 0 0 0.998897 104.631 135)">：</text><text font-family="Yu Gothic,Yu Gothic_MSFontService,sans-serif" font-weight="700" font-size="14.6505" transform="matrix(1 0 0 0.998897 35.7024 135)">：</text></g></svg>