<svg width="718" height="113" xmlns="http://www.w3.org/2000/svg" xmlns:xlink="http://www.w3.org/1999/xlink" overflow="hidden"><defs><clipPath id="clip0"><rect x="0" y="0" width="718" height="113"/></clipPath></defs><g clip-path="url(#clip0)"><rect x="0" y="0" width="718" height="112.694" fill="#FFFFFF"/><path d="M8.49997 58.8403C8.49997 53.6077 12.7533 49.3659 18.0001 49.3659L72.9999 49.3659C78.2466 49.3659 82.5 53.6077 82.5 58.8403L82.5 96.737C82.5 101.97 78.2466 106.211 72.9999 106.211L18.0001 106.211C12.7533 106.211 8.49997 101.97 8.49997 96.737Z" stroke="#172C51" stroke-width="1.33302" stroke-miterlimit="8" fill="none" fill-rule="evenodd"/><text font-family="Calibri,Calibri_MSFontService,sans-serif" font-weight="700" font-size="14.6235" transform="matrix(1 0 0 0.99729 22.4041 73)">Wiener</text><text font-family="Calibri,Calibri_MSFontService,sans-serif" font-weight="700" font-size="14.6235" transform="matrix(1 0 0 0.99729 28.9026 90)">Filter</text><path d="M93.5 58.8404C93.5 53.6077 97.7534 49.3659 103 49.3659L176 49.3659C181.247 49.3659 185.5 53.6077 185.5 58.8404L185.5 96.7369C185.5 101.97 181.247 106.211 176 106.211L103 106.211C97.7534 106.211 93.5 101.97 93.5 96.7369Z" stroke="#172C51" stroke-width="1.33302" stroke-miterlimit="8" fill="none" fill-rule="evenodd"/><text font-family="Calibri,Calibri_MSFontService,sans-serif" font-weight="700" font-size="14.6235" transform="matrix(1 0 0 0.99729 105.163 73)">Richardson</text><text font-family="Calibri,Calibri_MSFontService,sans-serif" font-weight="700" font-size="14.6235" transform="matrix(1 0 0 0.99729 125.405 90)">Lucy</text><path d="M299.5 58.8404C299.5 53.6077 303.753 49.3659 309 49.3659L382 49.3659C387.247 49.3659 391.5 53.6077 391.5 58.8404L391.5 96.7369C391.5 101.97 387.247 106.211 382 106.211L309 106.211C303.753 106.211 299.5 101.97 299.5 96.7369Z" stroke="#172C51" stroke-width="1.33302" stroke-miterlimit="8" fill="none" fill-rule="evenodd"/><text font-family="Calibri,Calibri_MSFontService,sans-serif" font-weight="700" font-size="14.6235" transform="matrix(1 0 0 0.99729 326.578 65)">Hyper</text><text font-family="Calibri,Calibri_MSFontService,sans-serif" font-weight="700" font-size="14.6235" transform="matrix(1 0 0 0.99729 316.494 82)">Laplacian</text><text font-family="Calibri,Calibri_MSFontService,sans-serif" font-weight="700" font-size="14.6235" transform="matrix(1 0 0 0.99729 330.077 99)">Prior</text><path d="M519.5 58.8404C519.5 53.6077 523.753 49.3659 529 49.3659L602 49.3659C607.247 49.3659 611.5 53.6077 611.5 58.8404L611.5 96.7369C611.5 101.97 607.247 106.211 602 106.211L529 106.211C523.753 106.211 519.5 101.97 519.5 96.7369Z" stroke="#172C51" stroke-width="1.33302" stroke-miterlimit="8" fill="none" fill-rule="evenodd"/><text font-family="Calibri,Calibri_MSFontService,sans-serif" font-weight="700" font-size="14.6235" transform="matrix(1 0 0 0.99729 535.211 73)">Shrinkage</text><text font-family="Calibri,Calibri_MSFontService,sans-serif" font-weight="700" font-size="14.6235" transform="matrix(1 0 0 0.99729 550.621 90)">Field</text><path d="M422.5 58.8404C422.5 53.6077 426.753 49.3659 432 49.3659L505 49.3659C510.247 49.3659 514.5 53.6077 514.5 58.8404L514.5 96.7369C514.5 101.97 510.247 106.211 505 106.211L432 106.211C426.753 106.211 422.5 101.97 422.5 96.7369Z" stroke="#172C51" stroke-width="1.33302" stroke-miterlimit="8" fill="none" fill-rule="evenodd"/><text font-family="Calibri,Calibri_MSFontService,sans-serif" font-weight="700" font-size="14.6235" transform="matrix(1 0 0 0.99729 441.295 65)">Machine</text><text font-family="Calibri,Calibri_MSFontService,sans-serif" font-weight="700" font-size="14.6235" transform="matrix(1 0 0 0.99729 441.629 82)">Learning</text><text font-family="Calibri,Calibri_MSFontService,sans-serif" font-weight="700" font-size="14.6235" transform="matrix(1 0 0 0.99729 438.383 99)">Approach</text><path d="M617.5 58.8404C617.5 53.6077 621.753 49.3659 627 49.3659L700 49.3659C705.247 49.3659 709.5 53.6077 709.5 58.8404L709.5 96.7369C709.5 101.97 705.247 106.211 700 106.211L627 106.211C621.753 106.211 617.5 101.97 617.5 96.7369Z" stroke="#172C51" stroke-width="1.33302" stroke-miterlimit="8" fill="none" fill-rule="evenodd"/><text font-family="Calibri,Calibri_MSFontService,sans-serif" font-weight="700" font-size="14.6235" transform="matrix(1 0 0 0.99729 649.829 65)">CNN</text><text font-family="Calibri,Calibri_MSFontService,sans-serif" font-weight="700" font-size="14.6235" transform="matrix(1 0 0 0.99729 636.332 82)">Denoiser</text><text font-family="Calibri,Calibri_MSFontService,sans-serif" font-weight="700" font-size="14.6235" transform="matrix(1 0 0 0.99729 648.583 99)">Prior</text><text font-family="Calibri,Calibri_MSFontService,sans-serif" font-weight="700" font-size="14.6235" transform="matrix(1 0 0 0.99729 29.0279 23)">1942</text><text font-family="Calibri,Calibri_MSFontService,sans-serif" font-weight="700" font-size="14.6235" transform="matrix(1 0 0 0.99729 29.0279 40)">1949</text><text font-family="Calibri,Calibri_MSFontService,sans-serif" font-weight="700" font-size="14.6235" transform="matrix(1 0 0 0.99729 120.348 24)">1972</text><text font-family="Calibri,Calibri_MSFontService,sans-serif" font-weight="700" font-size="14.6235" transform="matrix(1 0 0 0.99729 120.348 41)">1974</text><text font-family="Calibri,Calibri_MSFontService,sans-serif" font-weight="700" font-size="14.6235" transform="matrix(1 0 0 0.99729 330.381 43)">2009</text><text font-family="Calibri,Calibri_MSFontService,sans-serif" font-weight="700" font-size="14.6235" transform="matrix(1 0 0 0.99729 548.454 43)">2014</text><text font-family="Calibri,Calibri_MSFontService,sans-serif" font-weight="700" font-size="14.6235" transform="matrix(1 0 0 0.99729 452.679 43)">2013</text><text font-family="Calibri,Calibri_MSFontService,sans-serif" font-weight="700" font-size="14.6235" transform="matrix(1 0 0 0.99729 646.209 43)">2017</text></g></svg>