<svg width="605" height="529" xmlns="http://www.w3.org/2000/svg" xmlns:xlink="http://www.w3.org/1999/xlink" overflow="hidden"><g><rect x="0" y="0" width="605" height="528.542" fill="#FFFFFF"/><path d="M87.5 13.4883 87.5 141.378" stroke="#BFBFBF" stroke-width="1.33407" stroke-miterlimit="8" fill="none" fill-rule="evenodd"/><path d="M174.5 13.4883 174.5 141.378" stroke="#BFBFBF" stroke-width="1.33407" stroke-miterlimit="8" fill="none" fill-rule="evenodd"/><path d="M262.5 13.4883 262.5 141.378" stroke="#BFBFBF" stroke-width="1.33407" stroke-miterlimit="8" fill="none" fill-rule="evenodd"/><path d="M350.5 13.4883 350.5 141.378" stroke="#BFBFBF" stroke-width="1.33407" stroke-miterlimit="8" fill="none" fill-rule="evenodd"/><path d="M437.5 13.4883 437.5 141.378" stroke="#BFBFBF" stroke-width="1.33407" stroke-miterlimit="8" fill="none" fill-rule="evenodd"/><path d="M525.5 13.4883 525.5 141.378" stroke="#BFBFBF" stroke-width="1.33407" stroke-miterlimit="8" fill="none" fill-rule="evenodd"/><path d="M85.5 353.194 85.5 494.072" stroke="#172C51" stroke-width="1.33407" stroke-miterlimit="8" fill="none" fill-rule="evenodd"/><path d="M172.5 353.194 172.5 494.072" stroke="#172C51" stroke-width="1.33407" stroke-miterlimit="8" fill="none" fill-rule="evenodd"/><path d="M260.5 353.194 260.5 494.072" stroke="#172C51" stroke-width="1.33407" stroke-miterlimit="8" fill="none" fill-rule="evenodd"/><path d="M348.5 353.194 348.5 494.072" stroke="#172C51" stroke-width="1.33407" stroke-miterlimit="8" fill="none" fill-rule="evenodd"/><path d="M435.5 353.194 435.5 494.072" stroke="#172C51" stroke-width="1.33407" stroke-miterlimit="8" fill="none" fill-rule="evenodd"/><path d="M523.5 353.194 523.5 494.072" stroke="#172C51" stroke-width="1.33407" stroke-miterlimit="8" fill="none" fill-rule="evenodd"/><path d="M70.5001 46.4597 549.5 46.4597" stroke="#BFBFBF" stroke-width="1.33407" stroke-miterlimit="8" fill="none" fill-rule="evenodd"/><path d="M81 92.9195C81 89.0569 83.6863 85.9256 87 85.9256 90.3137 85.9256 93 89.0569 93 92.9195 93 96.7821 90.3137 99.9134 87 99.9134 83.6863 99.9134 81 96.7821 81 92.9195Z" fill="#3333FF" fill-rule="evenodd"/><path d="M71.0006 46.9593 71.0006 89.941 68.9995 89.941 68.9995 46.9593ZM75.5335 82.4472 70 91.925 64.4665 82.4472C64.1881 81.9703 64.3493 81.3582 64.8267 81.08 65.304 80.8018 65.9166 80.9629 66.1951 81.4398L70.8643 89.4372 69.1358 89.4372 73.805 81.4398C74.0835 80.9629 74.6961 80.8018 75.1734 81.08 75.6507 81.3582 75.812 81.9703 75.5335 82.4472Z" fill="#3333FF"/><text fill="#3333FF" font-family="Yu Gothic,Yu Gothic_MSFontService,sans-serif" font-weight="700" font-size="14.662" transform="matrix(1 0 0 0.999134 28.7047 75)">－</text><text fill="#3333FF" font-family="Calibri,Calibri_MSFontService,sans-serif" font-weight="700" font-size="14.662" transform="matrix(1 0 0 0.999134 43.3795 75)">0.5</text><path d="M0 32.9715 0 0 83.9273 32.9715Z" stroke="#3333FF" stroke-width="1.33291" stroke-miterlimit="8" stroke-dasharray="5.33165 3.99874" fill="none" fill-rule="evenodd" transform="matrix(-1.00087 0 0 1 174.5 59.4485)"/><text fill="#3333FF" font-family="Yu Gothic,Yu Gothic_MSFontService,sans-serif" font-weight="700" font-size="14.662" transform="matrix(1 0 0 0.999134 126.802 107)">＋</text><text fill="#3333FF" font-family="Calibri,Calibri_MSFontService,sans-serif" font-weight="700" font-size="14.662" transform="matrix(1 0 0 0.999134 141.477 107)">1</text><text fill="#3333FF" font-family="Yu Gothic,Yu Gothic_MSFontService,sans-serif" font-weight="700" font-size="14.662" transform="matrix(1 0 0 0.999134 175.262 83)">＋</text><text fill="#3333FF" font-family="Calibri,Calibri_MSFontService,sans-serif" font-weight="700" font-size="14.662" transform="matrix(1 0 0 0.999134 189.937 83)">a</text><path d="M0 32.9715 0 0 84.9264 32.9715Z" stroke="#3333FF" stroke-width="1.33291" stroke-miterlimit="8" stroke-dasharray="5.33165 3.99874" fill="none" fill-rule="evenodd" transform="matrix(-1.00087 0 0 1 263.5 24.4788)"/><text fill="#3333FF" font-family="Yu Gothic,Yu Gothic_MSFontService,sans-serif" font-weight="700" font-size="14.662" transform="matrix(1 0 0 0.999134 214.567 72)">＋</text><text fill="#3333FF" font-family="Calibri,Calibri_MSFontService,sans-serif" font-weight="700" font-size="14.662" transform="matrix(1 0 0 0.999134 229.242 72)">1</text><text fill="#3333FF" font-family="Yu Gothic,Yu Gothic_MSFontService,sans-serif" font-weight="700" font-size="14.662" transform="matrix(1 0 0 0.999134 264.802 49)">＋</text><text fill="#3333FF" font-family="Calibri,Calibri_MSFontService,sans-serif" font-weight="700" font-size="14.662" transform="matrix(1 0 0 0.999134 279.477 49)">a</text><path d="M0 32.9715 0 0 84.9264 32.9715Z" stroke="#3333FF" stroke-width="1.33291" stroke-miterlimit="8" stroke-dasharray="5.33165 3.99874" fill="none" fill-rule="evenodd" transform="matrix(-1.00087 0 0 1 350.5 84.4268)"/><text fill="#3333FF" font-family="Yu Gothic,Yu Gothic_MSFontService,sans-serif" font-weight="700" font-size="14.662" transform="matrix(1 0 0 0.999134 303.049 138)">＋</text><text fill="#3333FF" font-family="Calibri,Calibri_MSFontService,sans-serif" font-weight="700" font-size="14.662" transform="matrix(1 0 0 0.999134 317.724 138)">1</text><text fill="#3333FF" font-family="Yu Gothic,Yu Gothic_MSFontService,sans-serif" font-weight="700" font-size="14.662" transform="matrix(1 0 0 0.999134 350.442 111)">＋</text><text fill="#3333FF" font-family="Calibri,Calibri_MSFontService,sans-serif" font-weight="700" font-size="14.662" transform="matrix(1 0 0 0.999134 365.117 111)">a</text><path d="M0 33.9706 0 0 84.9264 33.9706Z" stroke="#3333FF" stroke-width="1.33291" stroke-miterlimit="8" stroke-dasharray="5.33165 3.99874" fill="none" fill-rule="evenodd" transform="matrix(-1.00087 0 0 1 438.5 50.4562)"/><text fill="#3333FF" font-family="Yu Gothic,Yu Gothic_MSFontService,sans-serif" font-weight="700" font-size="14.662" transform="matrix(1 0 0 0.999134 391.174 98)">＋</text><text fill="#3333FF" font-family="Calibri,Calibri_MSFontService,sans-serif" font-weight="700" font-size="14.662" transform="matrix(1 0 0 0.999134 405.849 98)">1</text><text fill="#3333FF" font-family="Yu Gothic,Yu Gothic_MSFontService,sans-serif" font-weight="700" font-size="14.662" transform="matrix(1 0 0 0.999134 439.101 76)">＋</text><text fill="#3333FF" font-family="Calibri,Calibri_MSFontService,sans-serif" font-weight="700" font-size="14.662" transform="matrix(1 0 0 0.999134 453.776 76)">a</text><path d="M169 58.4494C169 54.3108 171.686 50.9558 175 50.9558 178.314 50.9558 181 54.3108 181 58.4494 181 62.5879 178.314 65.9429 175 65.9429 171.686 65.9429 169 62.5879 169 58.4494Z" fill="#3333FF" fill-rule="evenodd"/><path d="M256 24.9784C256 21.1157 258.686 17.9845 262 17.9845 265.314 17.9845 268 21.1157 268 24.9784 268 28.841 265.314 31.9723 262 31.9723 258.686 31.9723 256 28.841 256 24.9784Z" fill="#FF0000" fill-rule="evenodd"/><path d="M256 117.398C256 113.26 258.91 109.905 262.5 109.905 266.09 109.905 269 113.26 269 117.398 269 121.537 266.09 124.892 262.5 124.892 258.91 124.892 256 121.537 256 117.398Z" fill="#3333FF" fill-rule="evenodd"/><path d="M344 82.9282C344 79.0655 346.686 75.9342 350 75.9342 353.314 75.9342 356 79.0655 356 82.9282 356 86.7908 353.314 89.9221 350 89.9221 346.686 89.9221 344 86.7908 344 82.9282Z" fill="#3333FF" fill-rule="evenodd"/><path d="M430 51.955C430 48.0923 432.91 44.9611 436.5 44.9611 440.09 44.9611 443 48.0923 443 51.955 443 55.8176 440.09 58.9489 436.5 58.9489 432.91 58.9489 430 55.8176 430 51.955Z" fill="#3333FF" fill-rule="evenodd"/><path d="M0 32.9715 0 0 84.9264 32.9715Z" stroke="#3333FF" stroke-width="1.33291" stroke-miterlimit="8" stroke-dasharray="5.33165 3.99874" fill="none" fill-rule="evenodd" transform="matrix(-1.00087 0 0 1 525.5 18.4839)"/><text fill="#3333FF" font-family="Yu Gothic,Yu Gothic_MSFontService,sans-serif" font-weight="700" font-size="14.662" transform="matrix(1 0 0 0.999134 477.753 66)">＋</text><text fill="#3333FF" font-family="Calibri,Calibri_MSFontService,sans-serif" font-weight="700" font-size="14.662" transform="matrix(1 0 0 0.999134 492.428 66)">1</text><text fill="#3333FF" font-family="Yu Gothic,Yu Gothic_MSFontService,sans-serif" font-weight="700" font-size="14.662" transform="matrix(1 0 0 0.999134 524.612 43)">＋</text><text fill="#3333FF" font-family="Calibri,Calibri_MSFontService,sans-serif" font-weight="700" font-size="14.662" transform="matrix(1 0 0 0.999134 539.287 43)">a</text><path d="M518 17.9844C518 14.1218 520.686 10.9904 524 10.9904 527.314 10.9904 530 14.1218 530 17.9844 530 21.8471 527.314 24.9784 524 24.9784 520.686 24.9784 518 21.8471 518 17.9844Z" fill="#FF0000" fill-rule="evenodd"/><path d="M262.555 23.8146 267.729 24.242 272.453 25.0341 276.72 26.1706 280.543 27.6336 283.934 29.4048 286.906 31.4648 289.471 33.793 291.654 36.3833 294.847 42.1551 296.643 48.6511 297.167 55.6775 296.554 63.0734 294.935 70.6839 292.438 78.3546 289.185 85.9307 285.301 93.2562 280.906 100.175 276.123 106.529 271.07 112.163 266.869 116.001 265.969 115.017 270.145 111.202 270.098 111.249 275.11 105.661 275.074 105.705 279.824 99.3947 279.794 99.4382 284.16 92.564 284.134 92.6091 287.993 85.3308 287.97 85.3801 291.2 77.8569 291.178 77.9135 293.656 70.3048 293.638 70.3725 295.24 62.8377 295.228 62.9212 295.833 55.6197 295.833 55.7242 295.318 48.8152 295.34 48.9431 293.582 42.586 293.641 42.731 290.518 37.0851 290.592 37.192 288.48 34.6855 288.541 34.7496 286.042 32.4807 286.11 32.5351 283.208 30.5237 283.279 30.5668 279.959 28.8328 280.029 28.8645 276.276 27.4279 276.343 27.4495 272.14 26.3301 272.202 26.3434 267.535 25.5612 267.591 25.5681 262.445 25.143ZM275.618 114.206 265.442 116.401 268.539 106.471C268.648 106.119 269.022 105.923 269.374 106.033 269.726 106.142 269.922 106.516 269.813 106.867L267.056 115.707 266.278 114.857 275.337 112.903C275.697 112.826 276.052 113.054 276.129 113.414 276.207 113.774 275.978 114.129 275.618 114.206Z" fill="#FF0000"/><text fill="#FF0000" font-family="Yu Gothic,Yu Gothic_MSFontService,sans-serif" font-weight="700" font-size="14.662" transform="matrix(1 0 0 0.999134 296.01 76)">－</text><text fill="#FF0000" font-family="Calibri,Calibri_MSFontService,sans-serif" font-weight="700" font-size="14.662" transform="matrix(1 0 0 0.999134 310.685 76)">1</text><path d="M520 115.9C520 112.037 522.686 108.906 526 108.906 529.314 108.906 532 112.037 532 115.9 532 119.762 529.314 122.894 526 122.894 522.686 122.894 520 119.762 520 115.9Z" fill="#3333FF" fill-rule="evenodd"/><path d="M526.622 19.8271 534.603 21.3112 541.27 24.1222 546.619 28.0991 550.705 33.0767 553.597 38.8818 555.377 45.3472 556.13 52.3152 555.94 59.6345 554.889 67.156 553.053 74.7309 550.511 82.2099 547.336 89.4434 543.605 96.2814 539.389 102.574 534.762 108.169 530.783 111.972 529.861 111.009 533.812 107.233 533.759 107.29 538.339 101.75 538.299 101.804 542.479 95.5651 542.448 95.6168 546.151 88.8305 546.126 88.8819 549.277 81.7009 549.257 81.7541 551.781 74.3306 551.764 74.3881 553.584 66.8744 553.572 66.939 554.614 59.4874 554.608 59.5624 554.795 52.3252 554.799 52.414 554.056 45.5437 554.076 45.6489 552.328 39.2976 552.374 39.4178 549.544 33.738 549.626 33.8637 545.64 29.0076 545.757 29.1196 540.539 25.2396 540.677 25.3189 534.151 22.5673 534.288 22.6084 526.378 21.1375ZM539.489 109.982 529.365 112.405 532.238 102.407C532.339 102.054 532.709 101.849 533.063 101.951 533.417 102.052 533.622 102.422 533.52 102.775L530.963 111.674 530.166 110.842 539.178 108.686C539.536 108.6 539.896 108.821 539.982 109.179 540.068 109.537 539.847 109.897 539.489 109.982Z" fill="#FF0000"/><text fill="#FF0000" font-family="Yu Gothic,Yu Gothic_MSFontService,sans-serif" font-weight="700" font-size="14.662" transform="matrix(1 0 0 0.999134 559.671 71)">－</text><text fill="#FF0000" font-family="Calibri,Calibri_MSFontService,sans-serif" font-weight="700" font-size="14.662" transform="matrix(1 0 0 0.999134 574.346 71)">1</text><path d="M64.5 370.179 544.5 370.179" stroke="#172C51" stroke-width="1.33407" stroke-miterlimit="8" fill="none" fill-rule="evenodd"/><path d="M64.5 422.134 544.5 422.134" stroke="#172C51" stroke-width="1.33407" stroke-miterlimit="8" fill="none" fill-rule="evenodd"/><path d="M64.5 474.089 544.5 474.089" stroke="#172C51" stroke-width="1.33407" stroke-miterlimit="8" fill="none" fill-rule="evenodd"/><text font-family="Cambria Math,Cambria Math_MSFontService,sans-serif" font-weight="400" font-size="18.6608" transform="matrix(1 0 0 0.999134 80.0741 510)">𝒙</text><text font-family="Cambria Math,Cambria Math_MSFontService,sans-serif" font-weight="400" font-size="13.6224" transform="matrix(1 0 0 0.999134 90.9134 513)">𝒔</text><text font-family="Cambria Math,Cambria Math_MSFontService,sans-serif" font-weight="400" font-size="18.6608" transform="matrix(1 0 0 0.999134 146.389 511)">𝒙</text><text font-family="Cambria Math,Cambria Math_MSFontService,sans-serif" font-weight="400" font-size="13.6224" transform="matrix(1 0 0 0.999134 157.229 514)">𝒔</text><text font-family="Cambria Math,Cambria Math_MSFontService,sans-serif" font-weight="400" font-size="18.6608" transform="matrix(1 0 0 0.999134 168.988 511)">+</text><text font-family="Cambria Math,Cambria Math_MSFontService,sans-serif" font-weight="400" font-size="18.6608" transform="matrix(1 0 0 0.999134 187.145 511)">𝟏</text><text font-family="Cambria Math,Cambria Math_MSFontService,sans-serif" font-weight="400" font-size="18.6608" transform="matrix(1 0 0 0.999134 233.8 510)">𝒙</text><text font-family="Cambria Math,Cambria Math_MSFontService,sans-serif" font-weight="400" font-size="13.6224" transform="matrix(1 0 0 0.999134 244.64 513)">𝒔</text><text font-family="Cambria Math,Cambria Math_MSFontService,sans-serif" font-weight="400" font-size="18.6608" transform="matrix(1 0 0 0.999134 256.4 510)">+</text><text font-family="Cambria Math,Cambria Math_MSFontService,sans-serif" font-weight="400" font-size="18.6608" transform="matrix(1 0 0 0.999134 274.556 510)">𝟐</text><path d="M72 473.59C72 466.416 77.5964 460.601 84.5 460.601 91.4036 460.601 97 466.416 97 473.59 97 480.763 91.4036 486.578 84.5 486.578 77.5964 486.578 72 480.763 72 473.59Z" fill-rule="evenodd"/><path d="M160 473.09C160 466.193 165.596 460.601 172.5 460.601 179.404 460.601 185 466.193 185 473.09 185 479.988 179.404 485.579 172.5 485.579 165.596 485.579 160 479.988 160 473.09Z" fill-rule="evenodd"/><path d="M248 423.633C248 416.459 253.596 410.644 260.5 410.644 267.404 410.644 273 416.459 273 423.633 273 430.806 267.404 436.622 260.5 436.622 253.596 436.622 248 430.806 248 423.633Z" fill-rule="evenodd"/><path d="M335 422.634C335 415.46 340.596 409.645 347.5 409.645 354.404 409.645 360 415.46 360 422.634 360 429.807 354.404 435.623 347.5 435.623 340.596 435.623 335 429.807 335 422.634Z" fill-rule="evenodd"/><path d="M423 423.633C423 416.459 428.596 410.644 435.5 410.644 442.404 410.644 448 416.459 448 423.633 448 430.806 442.404 436.622 435.5 436.622 428.596 436.622 423 430.806 423 423.633Z" fill-rule="evenodd"/><path d="M511 370.179C511 363.282 516.82 357.69 524 357.69 531.18 357.69 537 363.282 537 370.179 537 377.077 531.18 382.668 524 382.668 516.82 382.668 511 377.077 511 370.179Z" fill-rule="evenodd"/><text font-family="Cambria Math,Cambria Math_MSFontService,sans-serif" font-weight="400" font-size="18.6608" transform="matrix(1 0 0 0.999134 12.8567 376)">𝒚</text><text font-family="Cambria Math,Cambria Math_MSFontService,sans-serif" font-weight="400" font-size="13.6224" transform="matrix(1 0 0 0.999134 24.0295 380)">𝒔</text><text font-family="Cambria Math,Cambria Math_MSFontService,sans-serif" font-weight="400" font-size="18.6608" transform="matrix(1 0 0 0.999134 35.7893 376)">+</text><text font-family="Cambria Math,Cambria Math_MSFontService,sans-serif" font-weight="400" font-size="18.6608" transform="matrix(1 0 0 0.999134 53.946 376)">𝟐</text><text font-family="Cambria Math,Cambria Math_MSFontService,sans-serif" font-weight="400" font-size="18.6608" transform="matrix(1 0 0 0.999134 13.2133 428)">𝒚</text><text font-family="Cambria Math,Cambria Math_MSFontService,sans-serif" font-weight="400" font-size="13.6224" transform="matrix(1 0 0 0.999134 24.3861 431)">𝒔</text><text font-family="Cambria Math,Cambria Math_MSFontService,sans-serif" font-weight="400" font-size="18.6608" transform="matrix(1 0 0 0.999134 36.146 428)">+</text><text font-family="Cambria Math,Cambria Math_MSFontService,sans-serif" font-weight="400" font-size="18.6608" transform="matrix(1 0 0 0.999134 54.3026 428)">𝟏</text><text font-family="Cambria Math,Cambria Math_MSFontService,sans-serif" font-weight="400" font-size="18.6608" transform="matrix(1 0 0 0.999134 40.9312 477)">𝒚</text><text font-family="Cambria Math,Cambria Math_MSFontService,sans-serif" font-weight="400" font-size="13.6224" transform="matrix(1 0 0 0.999134 52.104 481)">𝒔</text><path d="M85.5 210.318 85.5 339.206" stroke="#BFBFBF" stroke-width="1.33407" stroke-miterlimit="8" fill="none" fill-rule="evenodd"/><path d="M173.5 210.318 173.5 339.206" stroke="#BFBFBF" stroke-width="1.33407" stroke-miterlimit="8" fill="none" fill-rule="evenodd"/><path d="M260.5 210.318 260.5 339.206" stroke="#BFBFBF" stroke-width="1.33407" stroke-miterlimit="8" fill="none" fill-rule="evenodd"/><path d="M348.5 210.318 348.5 339.206" stroke="#BFBFBF" stroke-width="1.33407" stroke-miterlimit="8" fill="none" fill-rule="evenodd"/><path d="M436.5 210.318 436.5 339.206" stroke="#BFBFBF" stroke-width="1.33407" stroke-miterlimit="8" fill="none" fill-rule="evenodd"/><path d="M523.5 210.318 523.5 339.206" stroke="#BFBFBF" stroke-width="1.33407" stroke-miterlimit="8" fill="none" fill-rule="evenodd"/><path d="M68.5 243.289 547.5 243.289" stroke="#BFBFBF" stroke-width="1.33407" stroke-miterlimit="8" fill="none" fill-rule="evenodd"/><path d="M79 289.749C79 285.886 81.6862 282.755 85 282.755 88.3137 282.755 91 285.886 91 289.749 91 293.612 88.3137 296.743 85 296.743 81.6862 296.743 79 293.612 79 289.749Z" fill="#3333FF" fill-rule="evenodd"/><path d="M70.0006 244.788 70.0006 286.77 67.9995 286.77 67.9995 244.788ZM74.5335 279.277 69 288.754 63.4665 279.277C63.1881 278.8 63.3493 278.188 63.8266 277.909 64.3039 277.631 64.9166 277.792 65.195 278.269L69.8643 286.267 68.1357 286.267 72.805 278.269C73.0834 277.792 73.6961 277.631 74.1734 277.909 74.6507 278.188 74.8119 278.8 74.5335 279.277Z" fill="#3333FF"/><text fill="#3333FF" font-family="Yu Gothic,Yu Gothic_MSFontService,sans-serif" font-weight="700" font-size="14.662" transform="matrix(1 0 0 0.999134 27.0081 272)">－</text><text fill="#3333FF" font-family="Cambria Math,Cambria Math_MSFontService,sans-serif" font-weight="400" font-size="14.662" transform="matrix(1 0 0 0.999134 41.6828 272)">𝚫</text><text fill="#3333FF" font-family="Cambria Math,Cambria Math_MSFontService,sans-serif" font-weight="400" font-size="14.662" transform="matrix(1 0 0 0.999134 51.188 272)">𝒙</text><path d="M0 32.9715 0 0 84.9264 32.9715Z" stroke="#3333FF" stroke-width="1.33291" stroke-miterlimit="8" stroke-dasharray="5.33165 3.99874" fill="none" fill-rule="evenodd" transform="matrix(-1.00087 0 0 1 173.5 256.278)"/><text fill="#3333FF" font-family="Cambria Math,Cambria Math_MSFontService,sans-serif" font-weight="400" font-size="14.662" transform="matrix(1 0 0 0.999134 113.684 303)">+</text><text fill="#3333FF" font-family="Cambria Math,Cambria Math_MSFontService,sans-serif" font-weight="400" font-size="14.662" transform="matrix(1 0 0 0.999134 124.69 303)">𝟐</text><text fill="#3333FF" font-family="Cambria Math,Cambria Math_MSFontService,sans-serif" font-weight="400" font-size="14.662" transform="matrix(1 0 0 0.999134 133.528 303)">𝚫</text><text fill="#3333FF" font-family="Cambria Math,Cambria Math_MSFontService,sans-serif" font-weight="400" font-size="14.662" transform="matrix(1 0 0 0.999134 143.034 303)">𝒙</text><text fill="#3333FF" font-family="Cambria Math,Cambria Math_MSFontService,sans-serif" font-weight="400" font-size="14.662" transform="matrix(1 0 0 0.999134 176.488 280)">+</text><text fill="#3333FF" font-family="Cambria Math,Cambria Math_MSFontService,sans-serif" font-weight="400" font-size="14.662" transform="matrix(1 0 0 0.999134 187.494 280)">𝟐</text><text fill="#3333FF" font-family="Cambria Math,Cambria Math_MSFontService,sans-serif" font-weight="400" font-size="14.662" transform="matrix(1 0 0 0.999134 196.332 280)">𝚫</text><text fill="#3333FF" font-family="Cambria Math,Cambria Math_MSFontService,sans-serif" font-weight="400" font-size="14.662" transform="matrix(1 0 0 0.999134 205.838 280)">𝒚</text><path d="M0 33.9706 0 0 84.9264 33.9706Z" stroke="#3333FF" stroke-width="1.33291" stroke-miterlimit="8" stroke-dasharray="5.33165 3.99874" fill="none" fill-rule="evenodd" transform="matrix(-1.00087 0 0 1 261.5 221.308)"/><path d="M0 32.9715 0 0 84.9264 32.9715Z" stroke="#3333FF" stroke-width="1.33291" stroke-miterlimit="8" stroke-dasharray="5.33165 3.99874" fill="none" fill-rule="evenodd" transform="matrix(-1.00087 0 0 1 348.5 282.255)"/><path d="M0 32.9715 0 0 84.9264 32.9715Z" stroke="#3333FF" stroke-width="1.33291" stroke-miterlimit="8" stroke-dasharray="5.33165 3.99874" fill="none" fill-rule="evenodd" transform="matrix(-1.00087 0 0 1 436.5 248.285)"/><path d="M167 255.778C167 251.916 169.686 248.784 173 248.784 176.314 248.784 179 251.916 179 255.778 179 259.641 176.314 262.772 173 262.772 169.686 262.772 167 259.641 167 255.778Z" fill="#3333FF" fill-rule="evenodd"/><path d="M254 222.807C254 218.944 256.686 215.813 260 215.813 263.314 215.813 266 218.944 266 222.807 266 226.67 263.314 229.801 260 229.801 256.686 229.801 254 226.67 254 222.807Z" fill="#FF0000" fill-rule="evenodd"/><path d="M255 314.727C255 310.865 257.686 307.733 261 307.733 264.314 307.733 267 310.865 267 314.727 267 318.59 264.314 321.721 261 321.721 257.686 321.721 255 318.59 255 314.727Z" fill="#3333FF" fill-rule="evenodd"/><path d="M343 280.757C343 276.894 345.686 273.763 349 273.763 352.314 273.763 355 276.894 355 280.757 355 284.619 352.314 287.751 349 287.751 345.686 287.751 343 284.619 343 280.757Z" fill="#3333FF" fill-rule="evenodd"/><path d="M429 249.284C429 245.145 431.686 241.79 435 241.79 438.314 241.79 441 245.145 441 249.284 441 253.423 438.314 256.777 435 256.777 431.686 256.777 429 253.423 429 249.284Z" fill="#3333FF" fill-rule="evenodd"/><path d="M0 32.9713 0 0 84.9264 32.9713Z" stroke="#3333FF" stroke-width="1.33291" stroke-miterlimit="8" stroke-dasharray="5.33165 3.99874" fill="none" fill-rule="evenodd" transform="matrix(-1.00087 0 0 1 523.5 215.313)"/><path d="M517 215.813C517 211.95 519.686 208.819 523 208.819 526.314 208.819 529 211.95 529 215.813 529 219.676 526.314 222.807 523 222.807 519.686 222.807 517 219.676 517 215.813Z" fill="#FF0000" fill-rule="evenodd"/><path d="M260.555 221.643 265.729 222.071 270.453 222.863 274.72 223.999 278.543 225.462 281.934 227.233 284.907 229.293 287.471 231.622 289.654 234.212 292.847 239.984 294.643 246.48 295.167 253.506 294.554 260.902 292.935 268.512 290.438 276.183 287.185 283.759 283.301 291.085 278.906 298.003 274.123 304.358 269.07 309.992 264.869 313.829 263.969 312.845 268.145 309.03 268.098 309.077 273.11 303.49 273.074 303.534 277.824 297.223 277.794 297.267 282.16 290.393 282.134 290.438 285.993 283.159 285.97 283.209 289.2 275.686 289.178 275.742 291.656 268.133 291.638 268.201 293.24 260.666 293.228 260.75 293.833 253.448 293.833 253.553 293.318 246.644 293.34 246.772 291.582 240.415 291.641 240.56 288.518 234.914 288.592 235.021 286.48 232.514 286.541 232.578 284.042 230.309 284.11 230.364 281.208 228.352 281.279 228.395 277.959 226.661 278.029 226.693 274.276 225.256 274.343 225.278 270.14 224.159 270.202 224.172 265.535 223.39 265.591 223.397 260.445 222.972ZM273.618 312.035 263.442 314.23 266.539 304.299C266.648 303.948 267.022 303.752 267.374 303.861 267.726 303.971 267.922 304.344 267.813 304.696L265.056 313.536 264.278 312.686 273.337 310.732C273.697 310.654 274.052 310.883 274.129 311.243 274.207 311.603 273.978 311.957 273.618 312.035Z" fill="#FF0000"/><text fill="#FF0000" font-family="Cambria Math,Cambria Math_MSFontService,sans-serif" font-weight="400" font-size="14.662" transform="matrix(1 0 0 0.999134 295.276 266)">−</text><text fill="#FF0000" font-family="Cambria Math,Cambria Math_MSFontService,sans-serif" font-weight="400" font-size="14.662" transform="matrix(1 0 0 0.999134 306.283 266)">𝟐</text><text fill="#FF0000" font-family="Cambria Math,Cambria Math_MSFontService,sans-serif" font-weight="400" font-size="14.662" transform="matrix(1 0 0 0.999134 315.121 266)">𝚫</text><text fill="#FF0000" font-family="Cambria Math,Cambria Math_MSFontService,sans-serif" font-weight="400" font-size="14.662" transform="matrix(1 0 0 0.999134 324.626 266)">𝒙</text><path d="M518 312.729C518 308.866 520.91 305.735 524.5 305.735 528.09 305.735 531 308.866 531 312.729 531 316.592 528.09 319.723 524.5 319.723 520.91 319.723 518 316.592 518 312.729Z" fill="#3333FF" fill-rule="evenodd"/><path d="M524.622 216.656 532.603 218.141 539.27 220.952 544.619 224.929 548.705 229.906 551.597 235.711 553.377 242.177 554.13 249.145 553.94 256.464 552.889 263.985 551.053 271.56 548.511 279.039 545.336 286.273 541.605 293.111 537.389 299.403 532.762 304.999 528.783 308.802 527.861 307.838 531.812 304.062 531.759 304.12 536.339 298.58 536.299 298.634 540.479 292.395 540.448 292.446 544.151 285.66 544.126 285.711 547.277 278.53 547.257 278.584 549.781 271.16 549.764 271.218 551.584 263.704 551.572 263.768 552.614 256.317 552.608 256.392 552.795 249.155 552.799 249.243 552.056 242.373 552.076 242.478 550.328 236.127 550.374 236.247 547.545 230.567 547.626 230.693 543.64 225.837 543.757 225.949 538.539 222.069 538.678 222.148 532.151 219.397 532.288 219.438 524.378 217.967ZM537.489 306.812 527.365 309.234 530.238 299.237C530.34 298.883 530.709 298.679 531.063 298.78 531.417 298.882 531.622 299.251 531.52 299.605L528.963 308.504 528.166 307.672 537.178 305.516C537.536 305.43 537.896 305.651 537.982 306.008 538.068 306.366 537.847 306.726 537.489 306.812Z" fill="#FF0000"/><path d="M277.5 181.343 290.25 181.343 290.25 158.363 315.75 158.363 315.75 181.343 328.5 181.343 303 204.323Z" stroke="#172C51" stroke-width="1.33407" stroke-miterlimit="8" fill="#FFFFFF" fill-rule="evenodd"/><text font-family="Cambria Math,Cambria Math_MSFontService,sans-serif" font-weight="400" font-size="14.662" transform="matrix(1 0 0 0.999134 341.91 184)">×</text><text font-family="Cambria Math,Cambria Math_MSFontService,sans-serif" font-weight="400" font-size="14.662" transform="matrix(1 0 0 0.999134 355.677 184)">𝟐</text><text font-family="Cambria Math,Cambria Math_MSFontService,sans-serif" font-weight="400" font-size="14.662" transform="matrix(1 0 0 0.999134 364.515 184)">𝚫</text><text font-family="Cambria Math,Cambria Math_MSFontService,sans-serif" font-weight="400" font-size="14.662" transform="matrix(1 0 0 0.999134 374.021 184)">𝒙</text><text fill="#3333FF" font-family="Cambria Math,Cambria Math_MSFontService,sans-serif" font-weight="400" font-size="14.662" transform="matrix(1 0 0 0.999134 241.608 247)">+</text><text fill="#3333FF" font-family="Cambria Math,Cambria Math_MSFontService,sans-serif" font-weight="400" font-size="14.662" transform="matrix(1 0 0 0.999134 252.614 247)">𝟐</text><text fill="#3333FF" font-family="Cambria Math,Cambria Math_MSFontService,sans-serif" font-weight="400" font-size="14.662" transform="matrix(1 0 0 0.999134 261.453 247)">𝚫</text><text fill="#3333FF" font-family="Cambria Math,Cambria Math_MSFontService,sans-serif" font-weight="400" font-size="14.662" transform="matrix(1 0 0 0.999134 270.958 247)">𝒚</text><text fill="#3333FF" font-family="Cambria Math,Cambria Math_MSFontService,sans-serif" font-weight="400" font-size="14.662" transform="matrix(1 0 0 0.999134 503.123 239)">+</text><text fill="#3333FF" font-family="Cambria Math,Cambria Math_MSFontService,sans-serif" font-weight="400" font-size="14.662" transform="matrix(1 0 0 0.999134 514.129 239)">𝟐</text><text fill="#3333FF" font-family="Cambria Math,Cambria Math_MSFontService,sans-serif" font-weight="400" font-size="14.662" transform="matrix(1 0 0 0.999134 522.967 239)">𝚫</text><text fill="#3333FF" font-family="Cambria Math,Cambria Math_MSFontService,sans-serif" font-weight="400" font-size="14.662" transform="matrix(1 0 0 0.999134 532.473 239)">𝒚</text><text fill="#3333FF" font-family="Cambria Math,Cambria Math_MSFontService,sans-serif" font-weight="400" font-size="14.662" transform="matrix(1 0 0 0.999134 328.655 306)">+</text><text fill="#3333FF" font-family="Cambria Math,Cambria Math_MSFontService,sans-serif" font-weight="400" font-size="14.662" transform="matrix(1 0 0 0.999134 339.661 306)">𝟐</text><text fill="#3333FF" font-family="Cambria Math,Cambria Math_MSFontService,sans-serif" font-weight="400" font-size="14.662" transform="matrix(1 0 0 0.999134 348.499 306)">𝚫</text><text fill="#3333FF" font-family="Cambria Math,Cambria Math_MSFontService,sans-serif" font-weight="400" font-size="14.662" transform="matrix(1 0 0 0.999134 358.004 306)">𝒚</text><text fill="#3333FF" font-family="Cambria Math,Cambria Math_MSFontService,sans-serif" font-weight="400" font-size="14.662" transform="matrix(1 0 0 0.999134 416.114 274)">+</text><text fill="#3333FF" font-family="Cambria Math,Cambria Math_MSFontService,sans-serif" font-weight="400" font-size="14.662" transform="matrix(1 0 0 0.999134 427.12 274)">𝟐</text><text fill="#3333FF" font-family="Cambria Math,Cambria Math_MSFontService,sans-serif" font-weight="400" font-size="14.662" transform="matrix(1 0 0 0.999134 435.958 274)">𝚫</text><text fill="#3333FF" font-family="Cambria Math,Cambria Math_MSFontService,sans-serif" font-weight="400" font-size="14.662" transform="matrix(1 0 0 0.999134 445.464 274)">𝒚</text><text fill="#FF0000" font-family="Cambria Math,Cambria Math_MSFontService,sans-serif" font-weight="400" font-size="14.662" transform="matrix(1 0 0 0.999134 555.53 266)">−</text><text fill="#FF0000" font-family="Cambria Math,Cambria Math_MSFontService,sans-serif" font-weight="400" font-size="14.662" transform="matrix(1 0 0 0.999134 566.536 266)">𝟐</text><text fill="#FF0000" font-family="Cambria Math,Cambria Math_MSFontService,sans-serif" font-weight="400" font-size="14.662" transform="matrix(1 0 0 0.999134 575.374 266)">𝚫</text><text fill="#FF0000" font-family="Cambria Math,Cambria Math_MSFontService,sans-serif" font-weight="400" font-size="14.662" transform="matrix(1 0 0 0.999134 584.88 266)">𝒙</text></g></svg>