<svg width="558" height="234" xmlns="http://www.w3.org/2000/svg" xmlns:xlink="http://www.w3.org/1999/xlink" overflow="hidden"><defs><clipPath id="clip0"><rect x="0" y="0" width="558" height="234"/></clipPath></defs><g clip-path="url(#clip0)"><rect x="0" y="0" width="558" height="234.455" fill="#FFFFFF"/><text font-family="Calibri,Calibri_MSFontService,sans-serif" font-weight="700" font-size="14.6458" transform="matrix(1 0 0 0.997683 5.57171 19)">1930</text><text font-family="Yu Gothic,Yu Gothic_MSFontService,sans-serif" font-weight="700" font-size="14.6458" transform="matrix(1 0 0 0.997683 35.5986 19)">～</text><text font-family="Calibri,Calibri_MSFontService,sans-serif" font-weight="700" font-size="14.6458" transform="matrix(1 0 0 0.997683 50.2784 19)">40</text><text font-family="Yu Gothic,Yu Gothic_MSFontService,sans-serif" font-weight="700" font-size="14.6458" transform="matrix(1 0 0 0.997683 65.2919 19)">年代</text><path d="M17.5 29.7643C17.5 26.2746 20.3356 23.4456 23.8334 23.4456L68.1666 23.4456C71.6645 23.4456 74.5 26.2746 74.5 29.7643L74.5 55.0387C74.5 58.5285 71.6645 61.3575 68.1666 61.3575L23.8334 61.3575C20.3356 61.3575 17.5 58.5285 17.5 55.0387Z" stroke="#172C51" stroke-width="1.33453" stroke-miterlimit="8" fill="none" fill-rule="evenodd"/><text font-family="Calibri,Calibri_MSFontService,sans-serif" font-weight="700" font-size="14.6458" transform="matrix(1 0 0 0.997683 27.3812 47)">γ</text><text font-family="Yu Gothic,Yu Gothic_MSFontService,sans-serif" font-weight="700" font-size="14.6458" transform="matrix(1 0 0 0.997683 34.2207 47)">補正</text><text font-family="Calibri,Calibri_MSFontService,sans-serif" font-weight="700" font-size="14.6458" transform="matrix(1 0 0 0.997683 99.4924 38)">1960</text><text font-family="Yu Gothic,Yu Gothic_MSFontService,sans-serif" font-weight="700" font-size="14.6458" transform="matrix(1 0 0 0.997683 129.519 38)">年代</text><path d="M98.5 47.7226C98.5 44.2328 101.336 41.4038 104.833 41.4038L157.167 41.4038C160.664 41.4038 163.5 44.2328 163.5 47.7226L163.5 72.997C163.5 76.4868 160.664 79.3158 157.167 79.3158L104.833 79.3158C101.336 79.3158 98.5 76.4868 98.5 72.997Z" stroke="#172C51" stroke-width="1.33453" stroke-miterlimit="8" fill="none" fill-rule="evenodd"/><text font-family="Yu Gothic,Yu Gothic_MSFontService,sans-serif" font-weight="700" font-size="14.6458" transform="matrix(1 0 0 0.997683 101.231 65)">線形変換</text><text font-family="Calibri,Calibri_MSFontService,sans-serif" font-weight="700" font-size="14.6458" transform="matrix(1 0 0 0.997683 179.903 64)">1970</text><text font-family="Yu Gothic,Yu Gothic_MSFontService,sans-serif" font-weight="700" font-size="14.6458" transform="matrix(1 0 0 0.997683 209.93 64)">年代</text><path d="M168.5 75.6577C168.5 72.1679 171.336 69.3389 174.833 69.3389L244.166 69.3389C247.664 69.3389 250.5 72.1679 250.5 75.6577L250.5 100.932C250.5 104.422 247.664 107.251 244.166 107.251L174.833 107.251C171.336 107.251 168.5 104.422 168.5 100.932Z" stroke="#172C51" stroke-width="1.33453" stroke-miterlimit="8" fill="none" fill-rule="evenodd"/><text font-family="Calibri,Calibri_MSFontService,sans-serif" font-weight="700" font-size="14.6458" transform="matrix(1 0 0 0.997683 177.452 84)">Histogram</text><text font-family="Calibri,Calibri_MSFontService,sans-serif" font-weight="700" font-size="14.6458" transform="matrix(1 0 0 0.997683 171.614 101)">Equalization</text><path d="M257.5 75.6577C257.5 72.1679 260.336 69.3389 263.833 69.3389L295.167 69.3389C298.664 69.3389 301.5 72.1679 301.5 75.6577L301.5 100.932C301.5 104.422 298.664 107.251 295.167 107.251L263.833 107.251C260.336 107.251 257.5 104.422 257.5 100.932Z" stroke="#172C51" stroke-width="1.33453" stroke-miterlimit="8" fill="none" fill-rule="evenodd"/><text font-family="Calibri,Calibri_MSFontService,sans-serif" font-weight="700" font-size="14.6458" transform="matrix(1 0 0 0.997683 266.233 93)">AHE</text><path d="M308.5 75.6577C308.5 72.1679 311.336 69.3389 314.833 69.3389L358.167 69.3389C361.664 69.3389 364.5 72.1679 364.5 75.6577L364.5 100.932C364.5 104.422 361.664 107.251 358.167 107.251L314.833 107.251C311.336 107.251 308.5 104.422 308.5 100.932Z" stroke="#172C51" stroke-width="1.33453" stroke-miterlimit="8" fill="none" fill-rule="evenodd"/><text font-family="Calibri,Calibri_MSFontService,sans-serif" font-weight="700" font-size="14.6458" transform="matrix(1 0 0 0.997683 316.58 93)">CLAHE</text><text font-family="Calibri,Calibri_MSFontService,sans-serif" font-weight="700" font-size="14.6458" transform="matrix(1 0 0 0.997683 280.609 123)">1980</text><text font-family="Yu Gothic,Yu Gothic_MSFontService,sans-serif" font-weight="700" font-size="14.6458" transform="matrix(1 0 0 0.997683 310.636 123)">～</text><text font-family="Calibri,Calibri_MSFontService,sans-serif" font-weight="700" font-size="14.6458" transform="matrix(1 0 0 0.997683 325.316 123)">90</text><text font-family="Yu Gothic,Yu Gothic_MSFontService,sans-serif" font-weight="700" font-size="14.6458" transform="matrix(1 0 0 0.997683 340.329 123)">年代</text><path d="M279.5 134.355C279.5 130.406 282.709 127.205 286.667 127.205L493.333 127.205C497.291 127.205 500.5 130.406 500.5 134.355L500.5 162.955C500.5 166.904 497.291 170.105 493.333 170.105L286.667 170.105C282.709 170.105 279.5 166.904 279.5 162.955Z" stroke="#172C51" stroke-width="1.33453" stroke-miterlimit="8" fill="none" fill-rule="evenodd"/><text font-family="Yu Gothic,Yu Gothic_MSFontService,sans-serif" font-weight="700" font-size="14.6458" transform="matrix(1 0 0 0.997683 290.62 144)">フォトレタッチ</text><text font-family="Calibri,Calibri_MSFontService,sans-serif" font-weight="700" font-size="14.6458" transform="matrix(1 0 0 0.997683 393.379 144)">,</text><text font-family="Yu Gothic,Yu Gothic_MSFontService,sans-serif" font-weight="700" font-size="14.6458" transform="matrix(1 0 0 0.997683 400.552 144)">デジタル暗室</text><text font-family="Calibri,Calibri_MSFontService,sans-serif" font-weight="700" font-size="14.6458" transform="matrix(1 0 0 0.997683 290.62 161)">(</text><text font-family="Yu Gothic,Yu Gothic_MSFontService,sans-serif" font-weight="700" font-size="14.6458" transform="matrix(1 0 0 0.997683 295.124 161)">トーンカーブ補正</text><text font-family="Calibri,Calibri_MSFontService,sans-serif" font-weight="700" font-size="14.6458" transform="matrix(1 0 0 0.997683 412.563 161)">,</text><text font-family="Yu Gothic,Yu Gothic_MSFontService,sans-serif" font-weight="700" font-size="14.6458" transform="matrix(1 0 0 0.997683 416.4 161)">･･･</text><text font-family="Calibri,Calibri_MSFontService,sans-serif" font-weight="700" font-size="14.6458" transform="matrix(1 0 0 0.997683 438.419 161)">)</text><text font-family="Calibri,Calibri_MSFontService,sans-serif" font-weight="700" font-size="14.6458" transform="matrix(1 0 0 0.997683 369.152 185)">1993</text><path d="M359.5 194.382C359.5 190.892 362.336 188.063 365.833 188.063L403.167 188.063C406.664 188.063 409.5 190.892 409.5 194.382L409.5 219.656C409.5 223.146 406.664 225.975 403.167 225.975L365.833 225.975C362.336 225.975 359.5 223.146 359.5 219.656Z" stroke="#172C51" stroke-width="1.33453" stroke-miterlimit="8" fill="none" fill-rule="evenodd"/><text font-family="Calibri,Calibri_MSFontService,sans-serif" font-weight="700" font-size="14.6458" transform="matrix(1 0 0 0.997683 370.642 212)">HDR</text><path d="M413.5 194.382C413.5 190.892 416.336 188.063 419.833 188.063L474.167 188.063C477.664 188.063 480.5 190.892 480.5 194.382L480.5 219.656C480.5 223.146 477.664 225.975 474.167 225.975L419.833 225.975C416.336 225.975 413.5 223.146 413.5 219.656Z" stroke="#172C51" stroke-width="1.33453" stroke-miterlimit="8" fill="none" fill-rule="evenodd"/><text font-family="Calibri,Calibri_MSFontService,sans-serif" font-weight="700" font-size="14.6458" transform="matrix(1 0 0 0.997683 428.572 203)">Detail</text><text font-family="Calibri,Calibri_MSFontService,sans-serif" font-weight="700" font-size="14.6458" transform="matrix(1 0 0 0.997683 420.986 220)">Enhance</text><path d="M484.5 194.382C484.5 190.892 487.336 188.063 490.833 188.063L545.167 188.063C548.664 188.063 551.5 190.892 551.5 194.382L551.5 219.656C551.5 223.146 548.664 225.975 545.167 225.975L490.833 225.975C487.336 225.975 484.5 223.146 484.5 219.656Z" stroke="#172C51" stroke-width="1.33453" stroke-miterlimit="8" fill="none" fill-rule="evenodd"/><text font-family="Calibri,Calibri_MSFontService,sans-serif" font-weight="700" font-size="14.6458" transform="matrix(1 0 0 0.997683 489.23 203)">Exposure</text><text font-family="Calibri,Calibri_MSFontService,sans-serif" font-weight="700" font-size="14.6458" transform="matrix(1 0 0 0.997683 497.231 220)">Fusion</text><text font-family="Calibri,Calibri_MSFontService,sans-serif" font-weight="700" font-size="14.6458" transform="matrix(1 0 0 0.997683 262.803 64)">1987</text><text font-family="Calibri,Calibri_MSFontService,sans-serif" font-weight="700" font-size="14.6458" transform="matrix(1 0 0 0.997683 321.938 65)">1994</text><text font-family="Calibri,Calibri_MSFontService,sans-serif" font-weight="700" font-size="14.6458" transform="matrix(1 0 0 0.997683 501.298 183)">200</text><text font-family="Calibri,Calibri_MSFontService,sans-serif" font-weight="700" font-size="14.6458" transform="matrix(1 0 0 0.997683 523.818 183)">7</text><text font-family="Calibri,Calibri_MSFontService,sans-serif" font-weight="700" font-size="14.6458" transform="matrix(1 0 0 0.997683 431.421 183)">200</text><text font-family="Calibri,Calibri_MSFontService,sans-serif" font-weight="700" font-size="14.6458" transform="matrix(1 0 0 0.997683 453.941 183)">2</text></g></svg>